<svg width="38" height="38" viewBox="0 0 38 38" fill="none" xmlns="http://www.w3.org/2000/svg">
<path opacity="0.6" d="M19.1064 0.702148L18.5945 0.709183C8.73047 0.980575 0.808552 9.07079 0.808552 19C0.808552 29.0821 9.006 37.2979 19.1064 37.2979C29.1886 37.2979 37.4043 29.0821 37.4043 19C37.4043 8.8996 29.1886 0.702148 19.1064 0.702148ZM15.4834 11.6809C16.0324 11.1319 16.8924 11.1319 17.423 11.6809L23.809 18.0302C24.0651 18.2864 24.2115 18.6341 24.2115 19C24.2115 19.366 24.0651 19.7136 23.809 19.9698L17.423 26.3192C17.1668 26.5936 16.8192 26.7217 16.4715 26.7217C16.1056 26.7217 15.7579 26.5936 15.4834 26.3192C14.9528 25.7702 14.9528 24.9102 15.5017 24.3796L20.8996 19L15.5017 13.6204C14.9528 13.0898 14.9528 12.2115 15.4834 11.6809Z" fill="#FFE2CA"/>
</svg>
